<svg width="32" height="32" viewBox="0 0 32 32" fill="none" xmlns="http://www.w3.org/2000/svg">
<g id="Frame">
<g id="Group">
<path id="Vector" d="M13.147 15.4145C15.2646 15.4145 17.0981 14.655 18.5966 13.1564C20.0947 11.6582 20.8545 9.82492 20.8545 7.70705C20.8545 5.5898 20.095 3.75637 18.5964 2.25756C17.0978 0.759498 15.2643 0 13.147 0C11.029 0 9.19573 0.759499 7.69748 2.25781C6.19924 3.75612 5.43943 5.58961 5.43943 7.70705C5.43943 9.82492 6.19917 11.6584 7.69755 13.1567C9.19629 14.6548 11.0298 15.4145 13.1469 15.4145H13.147ZM9.02367 3.58374C10.1733 2.43406 11.522 1.87525 13.147 1.87525C14.7717 1.87525 16.1206 2.43406 17.2705 3.58374C18.4202 4.73362 18.9792 6.08249 18.9792 7.70698C18.9792 9.33198 18.4202 10.6807 17.2705 11.8305C16.1206 12.9805 14.7717 13.5393 13.147 13.5393C11.5224 13.5393 10.1739 12.9802 9.02367 11.8305C7.87373 10.6809 7.31467 9.33204 7.31467 7.70705C7.31467 6.08249 7.87373 4.73362 9.02367 3.58374ZM26.633 24.6064C26.5898 23.9829 26.5024 23.3026 26.3737 22.5845C26.2438 21.8608 26.0766 21.1767 25.8764 20.5515C25.6694 19.9052 25.3884 19.2671 25.0404 18.6555C24.6798 18.0207 24.2561 17.468 23.7805 17.0132C23.2831 16.5373 22.6743 16.1548 21.9701 15.8757C21.2685 15.5982 20.4909 15.4575 19.6591 15.4575C19.3325 15.4575 19.0166 15.5915 18.4065 15.9888C17.9728 16.2712 17.5378 16.5516 17.1015 16.83C16.6823 17.0972 16.1145 17.3474 15.413 17.574C14.7287 17.7954 14.0339 17.9077 13.3478 17.9077C12.6623 17.9077 11.9675 17.7954 11.2827 17.574C10.582 17.3476 10.0139 17.0974 9.59542 16.8303C9.10979 16.52 8.67042 16.2368 8.2893 15.9885C7.67967 15.5913 7.36374 15.4572 7.03711 15.4572C6.20505 15.4572 5.42774 15.5981 4.7263 15.876C4.02268 16.1545 3.41356 16.5371 2.91574 17.0134C2.44018 17.4685 2.01637 18.0209 1.656 18.6555C1.30862 19.267 1.02737 19.905 0.820311 20.5517C0.620311 21.177 0.453124 21.8608 0.323249 22.5845C0.194312 23.3017 0.107187 23.9821 0.0639374 24.6071C0.0214375 25.2182 0 25.8542 0 26.4968C0 28.1672 0.530999 29.5194 1.57812 30.5168C2.61231 31.501 3.98049 31.9999 5.64474 31.9999H21.053C22.7167 31.9999 24.0849 31.5009 25.1193 30.5168C26.1667 29.5202 26.6977 28.1674 26.6977 26.4965C26.6974 25.8518 26.6758 25.2158 26.633 24.6064ZM23.8264 29.1581C23.143 29.8085 22.2358 30.1247 21.0526 30.1247H5.6448C4.46149 30.1247 3.55424 29.8085 2.87112 29.1584C2.201 28.5204 1.87531 27.6496 1.87531 26.4968C1.87531 25.8971 1.89506 25.3051 1.93468 24.7368C1.97318 24.1791 2.05206 23.5666 2.16906 22.9157C2.2845 22.2729 2.43143 21.6696 2.60624 21.1235C2.77399 20.5998 3.00274 20.0813 3.28643 19.5818C3.55718 19.1056 3.86868 18.6972 4.21243 18.3682C4.53399 18.0603 4.9393 17.8083 5.4168 17.6194C5.85843 17.4445 6.3548 17.3488 6.89361 17.3344C6.95924 17.3694 7.07624 17.436 7.26567 17.5595C7.65117 17.8108 8.09548 18.0974 8.58673 18.4111C9.14048 18.7642 9.85379 19.083 10.7061 19.3581C11.5774 19.6398 12.4661 19.7829 13.3482 19.7829C14.2303 19.7829 15.1192 19.6398 15.99 19.3583C16.843 19.0827 17.5562 18.7642 18.1107 18.4106C18.6133 18.0893 19.0452 17.811 19.4306 17.5595C19.6201 17.4362 19.7371 17.3693 19.8028 17.3345C20.3418 17.3488 20.8381 17.4445 21.28 17.6193C21.7573 17.8083 22.1626 18.0605 22.4841 18.3681C22.8279 18.697 23.1394 19.1055 23.4101 19.582C23.6941 20.0813 23.9231 20.6001 24.0906 21.1233C24.2656 21.6701 24.4128 22.2731 24.5281 22.9155C24.6448 23.5676 24.7239 24.1804 24.7625 24.737V24.7375C24.8023 25.3036 24.8223 25.8954 24.8225 26.4968C24.8223 27.6499 24.4966 28.5205 23.8265 29.1581H23.8264Z" fill="#FA8600"/>
</g>
</g>
</svg>
