<svg width="190" height="170" viewBox="0 0 190 170" fill="none" xmlns="http://www.w3.org/2000/svg">
<g id="OBJECTS">
<g id="Group">
<path id="Vector" d="M96.2158 169.352C148.011 169.352 190 166.695 190 163.418C190 160.141 148.011 157.484 96.2158 157.484C44.4201 157.484 2.4314 160.141 2.4314 163.418C2.4314 166.695 44.4201 169.352 96.2158 169.352Z" fill="#CAE6FE"/>
</g>
<g id="Group_2">
<path id="Vector_2" d="M173.632 56.0814C173.632 56.5888 173.425 57.0516 173.088 57.3865C172.755 57.7235 172.293 57.9303 171.785 57.9303H132.261C131.246 57.9303 130.415 57.0987 130.415 56.0814C130.415 55.574 130.621 55.1111 130.958 54.7763C131.291 54.4393 131.754 54.2324 132.261 54.2324H134.129C134.867 52.5179 136.571 51.3196 138.554 51.3196C139.889 51.3196 141.096 51.8634 141.971 52.74C143.135 50.7651 145.282 49.4388 147.741 49.4388C148.417 49.4388 149.068 49.541 149.682 49.7266C150.968 47.3084 153.51 45.6621 156.44 45.6621C159.958 45.6621 162.918 48.0379 163.812 51.2708C164.46 50.9466 165.191 50.7613 165.967 50.7613C168.162 50.7613 170.013 52.2262 170.595 54.2329H171.785C172.8 54.2324 173.632 55.0641 173.632 56.0814Z" fill="#CAE6FE"/>
<path id="Vector_3" d="M37.2535 23.875C37.2535 24.3124 37.075 24.7113 36.7847 24.9999C36.4977 25.2903 36.0989 25.4687 35.6614 25.4687H1.59207C0.717197 25.4687 0 24.752 0 23.875C0 23.4375 0.178452 23.0387 0.468806 22.75C0.755345 22.4597 1.15464 22.2812 1.59207 22.2812H3.20237C3.83861 20.8031 5.30733 19.7702 7.01682 19.7702C8.16764 19.7702 9.20783 20.239 9.9619 20.9943C10.9656 19.292 12.8167 18.1488 14.9361 18.1488C15.5189 18.1488 16.0793 18.237 16.6087 18.3968C17.7171 16.3122 19.9081 14.8931 22.434 14.8931C25.4672 14.8931 28.0185 16.9408 28.7887 19.7278C29.3474 19.4484 29.9781 19.2886 30.647 19.2886C32.5387 19.2886 34.1342 20.5514 34.6361 22.2812H35.6618C36.5367 22.2812 37.2535 22.9984 37.2535 23.875Z" fill="#CAE6FE"/>
<path id="Vector_4" d="M100.648 15.3344C100.648 15.7778 100.467 16.1817 100.173 16.4742C99.8821 16.7684 99.4781 16.9494 99.0347 16.9494H64.5127C63.6259 16.9494 62.8994 16.2229 62.8994 15.3344C62.8994 14.891 63.08 14.4871 63.3746 14.1946C63.6649 13.9004 64.0693 13.7194 64.5127 13.7194H66.1442C66.7885 12.2219 68.2767 11.1749 70.0091 11.1749C71.1751 11.1749 72.2293 11.6497 72.9931 12.4156C74.01 10.6909 75.8857 9.53241 78.0334 9.53241C78.6239 9.53241 79.1919 9.62185 79.7285 9.78377C80.8518 7.6716 83.072 6.2334 85.6314 6.2334C88.7049 6.2334 91.2901 8.30869 92.0705 11.1321C92.6368 10.849 93.2755 10.687 93.9537 10.687C95.8705 10.687 97.4872 11.9667 97.9958 13.7194H99.0352C99.9211 13.7194 100.648 14.446 100.648 15.3344Z" fill="#CAE6FE"/>
</g>
<g id="Group_3">
<g id="Group_4">
<g id="Group_5">
<g id="Group_6">
<path id="Vector_5" d="M175.177 44.8979C176.462 44.8979 177.507 45.9437 177.507 47.2288C177.507 48.514 176.462 49.5597 175.177 49.5597C173.891 49.5597 172.846 48.514 172.846 47.2288C172.846 45.9437 173.891 44.8979 175.177 44.8979ZM175.177 45.6291C174.295 45.6291 173.577 46.3468 173.577 47.2288C173.577 48.1109 174.295 48.8285 175.177 48.8285C176.059 48.8285 176.776 48.1109 176.776 47.2288C176.776 46.3468 176.059 45.6291 175.177 45.6291Z" fill="#2A365C"/>
</g>
<g id="Group_7">
<path id="Vector_6" d="M172.805 33.0503C174.09 33.0503 175.136 34.096 175.136 35.3812C175.136 36.6664 174.09 37.7121 172.805 37.7121C171.52 37.7121 170.474 36.6664 170.474 35.3812C170.474 34.096 171.52 33.0503 172.805 33.0503ZM172.805 33.7819C171.923 33.7819 171.206 34.4995 171.206 35.3816C171.206 36.2637 171.923 36.9813 172.805 36.9813C173.687 36.9813 174.405 36.2637 174.405 35.3816C174.405 34.4995 173.687 33.7819 172.805 33.7819Z" fill="#45A9EA"/>
</g>
<g id="Group_8">
<g id="Group_9">
<g id="Group_10">
<path id="Vector_7" d="M165.715 29.7682C165.715 29.9699 165.878 30.134 166.08 30.134H167.693C167.895 30.134 168.059 29.9703 168.059 29.7682C168.059 29.5664 167.895 29.4023 167.693 29.4023H166.08C165.879 29.4028 165.715 29.5664 165.715 29.7682Z" fill="#45A9EA"/>
</g>
<g id="Group_11">
<path id="Vector_8" d="M162.893 29.7682C162.893 29.9699 163.057 30.134 163.259 30.134H164.871C165.073 30.134 165.237 29.9703 165.237 29.7682C165.237 29.5664 165.073 29.4023 164.871 29.4023H163.259C163.057 29.4028 162.893 29.5664 162.893 29.7682Z" fill="#45A9EA"/>
</g>
</g>
<g id="Group_12">
<g id="Group_13">
<path id="Vector_9" d="M165.11 27.505V28.9533C165.11 29.1551 165.274 29.3191 165.476 29.3191C165.678 29.3191 165.842 29.1555 165.842 28.9533V27.505C165.842 27.3032 165.678 27.1392 165.476 27.1392C165.274 27.1392 165.11 27.3028 165.11 27.505Z" fill="#45A9EA"/>
</g>
<g id="Group_14">
<path id="Vector_10" d="M165.11 30.5826V32.031C165.11 32.2327 165.274 32.3964 165.476 32.3964C165.678 32.3964 165.842 32.2327 165.842 32.031V30.5826C165.842 30.3808 165.678 30.2168 165.476 30.2168C165.274 30.2172 165.11 30.3808 165.11 30.5826Z" fill="#45A9EA"/>
</g>
</g>
</g>
<g id="Group_15">
<g id="Group_16">
<g id="Group_17">
<g id="Group_18">
<path id="Vector_11" d="M168.344 42.2183C168.344 42.4201 168.508 42.5841 168.71 42.5841H170.322C170.524 42.5841 170.688 42.4205 170.688 42.2183C170.688 42.0166 170.524 41.8525 170.322 41.8525H168.71C168.508 41.8525 168.344 42.0166 168.344 42.2183Z" fill="#45A9EA"/>
</g>
<g id="Group_19">
<path id="Vector_12" d="M165.523 42.2183C165.523 42.4201 165.687 42.5841 165.889 42.5841H167.501C167.703 42.5841 167.867 42.4205 167.867 42.2183C167.867 42.0166 167.703 41.8525 167.501 41.8525H165.889C165.687 41.8525 165.523 42.0166 165.523 42.2183Z" fill="#45A9EA"/>
</g>
</g>
<g id="Group_20">
<g id="Group_21">
<path id="Vector_13" d="M167.74 39.9547V41.403C167.74 41.6048 167.903 41.7689 168.106 41.7689C168.307 41.7689 168.471 41.6052 168.471 41.403V39.9547C168.471 39.7529 168.308 39.5889 168.106 39.5889C167.904 39.5893 167.74 39.7529 167.74 39.9547Z" fill="#45A9EA"/>
</g>
<g id="Group_22">
<path id="Vector_14" d="M167.74 43.0328V44.4812C167.74 44.6829 167.903 44.847 168.106 44.847C168.307 44.847 168.471 44.6834 168.471 44.4812V43.0328C168.471 42.831 168.308 42.667 168.106 42.667C167.904 42.6674 167.74 42.831 167.74 43.0328Z" fill="#45A9EA"/>
</g>
</g>
</g>
</g>
</g>
</g>
<g id="Group_23">
<g id="Group_24">
<g id="Group_25">
<path id="Vector_15" d="M18.6266 56.1878C18.6266 57.473 17.5809 58.5187 16.2957 58.5187C15.0105 58.5187 13.9648 57.473 13.9648 56.1878C13.9648 54.9026 15.0105 53.8569 16.2957 53.8569C17.5809 53.8569 18.6266 54.9026 18.6266 56.1878ZM17.8954 56.1878C17.8954 55.3057 17.1778 54.5881 16.2957 54.5881C15.4136 54.5881 14.696 55.3057 14.696 56.1878C14.696 57.0699 15.4136 57.7875 16.2957 57.7875C17.1778 57.7875 17.8954 57.0703 17.8954 56.1878Z" fill="#45A9EA"/>
</g>
<g id="Group_26">
<g id="Group_27">
<path id="Vector_16" d="M28.1415 53.0433C28.1415 54.3285 27.0958 55.3742 25.8106 55.3742C24.5254 55.3742 23.4797 54.3285 23.4797 53.0433C23.4797 51.7581 24.5254 50.7124 25.8106 50.7124C27.0958 50.712 28.1415 51.7577 28.1415 53.0433ZM27.4103 53.0433C27.4103 52.1612 26.6927 51.4436 25.8106 51.4436C24.9285 51.4436 24.2109 52.1612 24.2109 53.0433C24.2109 53.9254 24.9285 54.643 25.8106 54.643C26.6927 54.643 27.4103 53.9254 27.4103 53.0433Z" fill="#2A365C"/>
</g>
</g>
<g id="Group_28">
<g id="Group_29">
<g id="Group_30">
<path id="Vector_17" d="M28.4398 43.0361C28.238 43.0361 28.074 43.1998 28.074 43.4019V45.0144C28.074 45.2165 28.2376 45.3802 28.4398 45.3802C28.642 45.3802 28.8056 45.2165 28.8056 45.0144V43.4019C28.8056 43.1998 28.6415 43.0361 28.4398 43.0361Z" fill="#45A9EA"/>
</g>
<g id="Group_31">
<path id="Vector_18" d="M28.4398 40.2139C28.238 40.2139 28.074 40.3775 28.074 40.5797V42.1921C28.074 42.3939 28.2376 42.5579 28.4398 42.5579C28.642 42.5579 28.8056 42.3943 28.8056 42.1921V40.5797C28.8056 40.3779 28.6415 40.2139 28.4398 40.2139Z" fill="#45A9EA"/>
</g>
</g>
<g id="Group_32">
<g id="Group_33">
<path id="Vector_19" d="M30.7029 42.4312H29.2545C29.0527 42.4312 28.8887 42.5948 28.8887 42.797C28.8887 42.9987 29.0523 43.1628 29.2545 43.1628H30.7029C30.9046 43.1628 31.0687 42.9991 31.0687 42.797C31.0682 42.5948 30.9046 42.4312 30.7029 42.4312Z" fill="#45A9EA"/>
</g>
<g id="Group_34">
<path id="Vector_20" d="M27.6247 42.4312H26.1764C25.9746 42.4312 25.8105 42.5948 25.8105 42.797C25.8105 42.9987 25.9742 43.1628 26.1764 43.1628H27.6247C27.8265 43.1628 27.9905 42.9991 27.9905 42.797C27.9901 42.5948 27.8265 42.4312 27.6247 42.4312Z" fill="#45A9EA"/>
</g>
</g>
</g>
<g id="Group_35">
<g id="Group_36">
<g id="Group_37">
<g id="Group_38">
<path id="Vector_21" d="M18.5584 45.6187C18.3567 45.6187 18.1926 45.7823 18.1926 45.9845V47.5969C18.1926 47.7991 18.3562 47.9627 18.5584 47.9627C18.7602 47.9627 18.9242 47.7991 18.9242 47.5969V45.9845C18.9242 45.7823 18.7606 45.6187 18.5584 45.6187Z" fill="#45A9EA"/>
</g>
<g id="Group_39">
<path id="Vector_22" d="M18.5587 42.7969C18.3569 42.7969 18.1929 42.9605 18.1929 43.1627V44.7751C18.1929 44.9773 18.3565 45.1409 18.5587 45.1409C18.7604 45.1409 18.9245 44.9773 18.9245 44.7751V43.1627C18.9245 42.9605 18.7609 42.7969 18.5587 42.7969Z" fill="#45A9EA"/>
</g>
</g>
<g id="Group_40">
<g id="Group_41">
<path id="Vector_23" d="M20.8225 45.0137H19.3741C19.1723 45.0137 19.0083 45.1773 19.0083 45.3795C19.0083 45.5817 19.1719 45.7453 19.3741 45.7453H20.8225C21.0242 45.7453 21.1879 45.5817 21.1879 45.3795C21.1879 45.1777 21.0242 45.0137 20.8225 45.0137Z" fill="#45A9EA"/>
</g>
<g id="Group_42">
<path id="Vector_24" d="M17.7444 45.0137H16.296C16.0942 45.0137 15.9302 45.1773 15.9302 45.3795C15.9302 45.5817 16.0938 45.7453 16.296 45.7453H17.7444C17.9461 45.7453 18.1102 45.5817 18.1102 45.3795C18.1097 45.1777 17.9461 45.0137 17.7444 45.0137Z" fill="#45A9EA"/>
</g>
</g>
</g>
</g>
</g>
</g>
<g id="Group_43">
<g id="Group_44">
<path id="Vector_25" d="M26.0714 68.449V76.2331C26.0714 76.7315 25.6683 77.1317 25.1732 77.1317H17.3858C17.0442 77.1317 16.7491 76.9439 16.5953 76.6642C16.58 76.6332 16.5643 76.6027 16.5554 76.5717C16.5402 76.5255 16.5245 76.4793 16.5092 76.4302C16.5092 76.4242 16.5063 76.4208 16.5063 76.4149C16.5063 76.409 16.5033 76.3997 16.5033 76.3933C16.494 76.3412 16.488 76.2886 16.488 76.2335V68.4495C16.488 67.9819 16.842 67.6034 17.2909 67.5542C17.3218 67.5542 17.3557 67.5513 17.3862 67.5513H25.1737C25.2661 67.5513 25.3551 67.5636 25.4382 67.5911C25.4382 67.5911 25.4381 67.5911 25.4411 67.5911C25.8069 67.7047 26.0714 68.043 26.0714 68.449Z" fill="#2A365C"/>
</g>
<g id="Group_45">
<g id="Group_46">
<g id="Group_47">
<g id="Group_48">
<path id="Vector_26" d="M21.8476 74.9821L21.8413 75.7582L20.8553 75.7501L20.8613 75.0088C20.1623 74.9613 19.4854 74.7668 19.0679 74.5048L19.6092 73.3061C20.0686 73.5825 20.6824 73.7626 21.2212 73.7668C21.6895 73.7706 21.8582 73.674 21.8599 73.5062C21.865 72.8907 19.1543 73.3654 19.1692 71.5398C19.1755 70.7497 19.7545 70.0897 20.9028 69.9384L20.9092 69.1763L21.8951 69.1843L21.8892 69.9325C22.4063 69.9859 22.9086 70.1228 23.3058 70.3496L22.7997 71.5415C22.319 71.2927 21.8654 71.1702 21.439 71.1668C20.9567 71.163 20.8015 71.3016 20.8002 71.4694C20.7956 72.0569 23.5058 71.5894 23.491 73.3938C23.4842 74.1492 22.9332 74.8019 21.8476 74.9821Z" fill="#FEFDFF"/>
</g>
</g>
</g>
</g>
</g>
<g id="Group_49">
<g id="Group_50">
<path id="Vector_27" d="M179.979 122.523V130.317C179.979 130.816 179.575 131.216 179.079 131.216H171.283C170.94 131.216 170.645 131.029 170.491 130.748C170.475 130.717 170.46 130.686 170.45 130.656C170.435 130.609 170.42 130.563 170.404 130.514C170.404 130.508 170.401 130.505 170.401 130.499C170.401 130.492 170.398 130.483 170.398 130.477C170.389 130.425 170.383 130.372 170.383 130.317V122.523C170.383 122.055 170.737 121.676 171.187 121.627C171.218 121.627 171.252 121.624 171.283 121.624H179.079C179.172 121.624 179.261 121.636 179.344 121.664C179.344 121.664 179.344 121.664 179.347 121.664C179.714 121.778 179.979 122.117 179.979 122.523Z" fill="#45A9EA"/>
</g>
<g id="Group_51">
<g id="Group_52">
<path id="Vector_28" d="M175.278 123.573C173.622 123.573 172.273 124.921 172.273 126.579C172.273 128.235 173.621 129.584 175.278 129.584C176.935 129.584 178.284 128.235 178.284 126.579C178.283 124.921 176.935 123.573 175.278 123.573ZM175.399 127.688V126.635H176.758C176.749 127.007 176.695 127.361 176.597 127.688H175.399ZM176.25 128.887C176.471 128.607 176.647 128.285 176.773 127.93H177.688C177.301 128.618 176.652 129.102 175.888 129.274C176.018 129.158 176.139 129.029 176.25 128.887ZM176.515 127.93C176.402 128.225 176.251 128.494 176.066 128.731C175.778 129.098 175.49 129.285 175.399 129.339V127.93H176.515V127.93ZM175.399 125.099V123.818C175.435 123.82 175.471 123.822 175.507 123.825C175.657 123.952 176.128 124.389 176.449 125.099H175.399V125.099ZM176.713 125.099C176.605 124.84 176.469 124.592 176.308 124.36C176.191 124.193 176.063 124.036 175.928 123.892C176.619 124.059 177.226 124.494 177.611 125.099H176.713ZM175.399 126.393V125.34H176.548C176.672 125.679 176.742 126.033 176.756 126.393H175.399ZM176.998 126.393C176.985 126.036 176.92 125.682 176.804 125.34H177.749C177.915 125.67 178.011 126.024 178.036 126.393H176.998ZM178.041 126.635C178.034 127.001 177.956 127.355 177.809 127.688H176.849C176.941 127.359 176.991 127.005 176.999 126.635H178.041ZM173.736 127.688H172.748C172.601 127.355 172.523 127.001 172.516 126.635H173.586C173.594 127.005 173.644 127.359 173.736 127.688ZM174.135 125.099C174.229 124.891 174.341 124.691 174.471 124.504C174.724 124.14 174.977 123.909 175.081 123.822C175.106 123.82 175.132 123.819 175.158 123.818V125.099H174.135ZM175.158 125.34V126.393H173.829C173.843 126.035 173.913 125.681 174.037 125.34H175.158ZM172.946 125.099C173.338 124.482 173.958 124.045 174.665 123.884C174.526 124.029 174.396 124.19 174.276 124.36C174.115 124.592 173.979 124.84 173.872 125.099H172.946ZM175.158 126.635V127.688H173.987C173.889 127.362 173.836 127.008 173.827 126.635H175.158ZM172.521 126.393C172.545 126.025 172.642 125.671 172.808 125.34H173.78C173.665 125.682 173.599 126.036 173.586 126.393H172.521ZM173.812 127.93C173.938 128.285 174.114 128.608 174.334 128.887C174.449 129.032 174.573 129.164 174.705 129.282C173.935 129.118 173.258 128.62 172.869 127.93H173.812ZM175.158 127.93V129.322C174.975 129.208 174.404 128.796 174.07 127.93H175.158Z" fill="#FEFDFF"/>
</g>
</g>
</g>
</g>
<g id="Group_53">
<g id="Group_54">
<path id="Vector_29" d="M117.605 43.5827L118.68 43.9375L119.25 44.1253L120.865 44.6577C120.865 44.6577 144.921 25.1984 138.756 13.6067C136.858 10.0381 131.122 10.2598 127.904 22.1902C124.921 33.2491 117.605 43.5827 117.605 43.5827Z" fill="#ABD3F2"/>
<g id="Group_55">
<g id="Group_56">
<path id="Vector_30" d="M118.68 43.9374L119.25 44.1252C124.082 39.0374 127.812 33.0243 130.163 28.7042C132.955 23.5745 134.464 19.6549 134.478 19.6159C134.532 19.476 134.462 19.3188 134.322 19.2662C134.182 19.2124 134.024 19.2823 133.971 19.4218C133.957 19.4612 132.459 23.3532 129.682 28.4524C127.319 32.7937 123.556 38.8547 118.68 43.9374Z" fill="#90C3EF"/>
</g>
</g>
</g>
<g id="Group_57">
<path id="Vector_31" d="M54.8844 146.184L53.8251 146.252L53.263 146.288L51.6714 146.391C51.6714 146.391 34.4142 123.057 42.7416 113.985C45.3052 111.192 50.4612 112.744 50.5727 124.334C50.6761 135.078 54.8844 146.184 54.8844 146.184Z" fill="#ABD3F2"/>
<g id="Group_58">
<path id="Vector_32" d="M53.8248 146.252L53.2627 146.288C50.0735 140.531 48.1037 134.193 46.9864 129.716C45.6597 124.401 45.2138 120.487 45.2099 120.449C45.1938 120.309 45.2947 120.183 45.4342 120.168C45.574 120.152 45.6999 120.252 45.7156 120.392C45.7199 120.431 46.1628 124.317 47.4828 129.601C48.6064 134.1 50.5953 140.489 53.8248 146.252Z" fill="#90C3EF"/>
</g>
</g>
<g id="Group_59">
<path id="Vector_33" d="M60.214 149.7L58.9763 150.611L58.3197 151.094L56.4597 152.462C56.4597 152.462 17.1996 137.494 20.2659 119.931C21.2099 114.524 28.7078 112.39 37.8944 126.431C46.4105 139.448 60.214 149.7 60.214 149.7Z" fill="#CAE6FE"/>
<g id="Group_60">
<path id="Vector_34" d="M58.9764 150.611L58.3198 151.094C49.9355 146.566 42.5847 140.377 37.7271 135.793C31.959 130.35 28.3586 125.927 28.3239 125.883C28.195 125.725 28.2196 125.493 28.3781 125.365C28.5358 125.236 28.7681 125.261 28.8961 125.418C28.9321 125.462 32.5067 129.854 38.2421 135.265C43.1243 139.872 50.5387 146.108 58.9764 150.611Z" fill="#ABD3F2"/>
</g>
</g>
<g id="Group_61">
<path id="Vector_35" d="M112.025 47.3257L113.209 48.4588L113.837 49.0594L115.616 50.7608C115.616 50.7608 159.175 40.3094 158.337 21.3206C158.079 15.475 150.444 12.1916 138.808 25.7802C128.022 38.3765 112.025 47.3257 112.025 47.3257Z" fill="#CAE6FE"/>
<g id="Group_62">
<path id="Vector_36" d="M113.208 48.459L113.836 49.0596C123.321 45.4198 131.94 39.8836 137.703 35.7016C144.547 30.7359 148.959 26.5527 149.002 26.5108C149.16 26.3616 149.166 26.1127 149.016 25.9559C148.866 25.7982 148.618 25.7923 148.461 25.9415C148.417 25.9839 144.036 30.1379 137.231 35.0735C131.438 39.2749 122.746 44.8527 113.208 48.459Z" fill="#ABD3F2"/>
</g>
</g>
<g id="Group_63">
<path id="Vector_37" d="M34.0759 34.6193C35.6926 39.3391 40.4586 38.9954 40.5159 42.8789C40.5727 46.7612 43.1303 49.6066 46.4514 48.7589C49.7733 47.9103 52.1703 47.1007 53.8569 50.8965C55.5426 54.6923 60.4952 56.4221 62.2992 53.2969C62.7489 52.5191 63.2343 51.6764 63.709 50.8494C63.8387 50.6235 63.968 50.3984 64.0952 50.1772C64.1248 50.1259 64.1549 50.0746 64.1837 50.0237C66.0937 46.6976 65.2434 42.4279 62.1352 40.1809C60.8767 39.2717 59.3965 38.7919 57.7629 39.3463C52.6467 41.0808 54.2998 35.7964 51.125 33.719C47.4683 31.3254 44.5376 34.3234 42.0143 32.2604C38.5042 29.3912 32.4593 29.8994 34.0759 34.6193Z" fill="#ABD3F2"/>
<g id="Group_64">
<path id="Vector_38" d="M40.3385 36.4327L63.7093 50.8499C63.839 50.624 63.9683 50.3989 64.0954 50.1777L40.7459 35.7731C40.5636 35.6608 40.325 35.7172 40.2126 35.899C40.0999 36.0813 40.1563 36.3204 40.3385 36.4327Z" fill="#90C3EF"/>
</g>
</g>
<g id="Group_65">
<path id="Vector_39" d="M37.6662 8.25239C36.9545 14.3867 42.4615 16.5442 40.4541 20.9123C38.4474 25.279 39.7865 29.8213 43.9481 30.6457C48.1109 31.4697 51.22 31.8436 51.0793 36.9826C50.9377 42.1217 55.547 46.6944 59.2287 44.166C60.146 43.5374 61.1374 42.8545 62.1085 42.1844C62.3739 42.0013 62.6384 41.819 62.8982 41.6393C62.9588 41.5982 63.0194 41.5566 63.0788 41.5151C66.9856 38.8184 68.3132 33.5963 66.04 29.4287C65.1197 27.7421 63.7222 26.4167 61.6016 26.1649C54.9624 25.374 59.6272 20.3527 57.1882 16.3395C54.38 11.7159 49.508 13.5017 47.7901 9.85124C45.4011 4.77408 38.3779 2.11808 37.6662 8.25239Z" fill="#CAE6FE"/>
<g id="Group_66">
<path id="Vector_40" d="M43.6937 13.6171L62.1085 42.1841C62.3739 42.001 62.6384 41.8187 62.8982 41.639L44.5 13.0974C44.3563 12.8749 44.0596 12.8105 43.837 12.9537C43.6149 13.0979 43.5505 13.3946 43.6937 13.6171Z" fill="#ABD3F2"/>
</g>
</g>
<g id="Group_67">
<path id="Vector_41" d="M137.98 112.463C133.239 114.016 133.519 118.786 129.635 118.791C125.752 118.796 122.873 121.315 123.675 124.647C124.479 127.98 125.256 130.387 121.437 132.023C117.619 133.657 115.823 138.586 118.923 140.432C119.695 140.892 120.531 141.389 121.351 141.874C121.576 142.007 121.799 142.139 122.019 142.269C122.069 142.3 122.12 142.33 122.171 142.36C125.471 144.315 129.751 143.522 132.04 140.445C132.966 139.199 133.466 137.725 132.934 136.084C131.268 130.945 136.53 132.67 138.65 129.523C141.093 125.898 138.134 122.928 140.232 120.433C143.149 116.962 142.722 110.91 137.98 112.463Z" fill="#ABD3F2"/>
<g id="Group_68">
<path id="Vector_42" d="M136.083 118.701L121.352 141.875C121.576 142.008 121.799 142.14 122.019 142.27L136.737 119.117C136.852 118.936 136.799 118.697 136.618 118.582C136.438 118.467 136.198 118.52 136.083 118.701Z" fill="#90C3EF"/>
</g>
</g>
<g id="Group_69">
<path id="Vector_43" d="M156.01 122.353C149.885 121.559 147.654 127.036 143.313 124.97C138.974 122.905 134.414 124.183 133.534 128.333C132.654 132.484 132.238 135.588 127.101 135.378C121.964 135.167 117.33 139.714 119.808 143.43C120.424 144.356 121.093 145.356 121.751 146.336C121.93 146.604 122.109 146.871 122.285 147.133C122.325 147.194 122.366 147.256 122.407 147.316C125.051 151.259 130.255 152.657 134.453 150.44C136.151 149.542 137.496 148.163 137.776 146.046C138.657 139.418 143.614 144.15 147.66 141.766C152.321 139.02 150.601 134.124 154.274 132.456C159.383 130.134 162.134 123.148 156.01 122.353Z" fill="#CAE6FE"/>
<g id="Group_70">
<path id="Vector_44" d="M150.564 128.308L121.751 146.337C121.931 146.604 122.109 146.872 122.286 147.134L151.073 129.122C151.297 128.982 151.366 128.686 151.225 128.461C151.085 128.236 150.788 128.168 150.564 128.308Z" fill="#ABD3F2"/>
</g>
</g>
<g id="Group_71">
<g id="Group_72">
<path id="Vector_45" d="M58.9106 98.7297C52.9195 91.8265 42.2566 78.2175 38.9715 72.7517C34.6798 65.6107 32.7999 59.8019 33.3836 55.486C33.4226 55.2003 33.6854 54.9994 33.9719 55.0379C34.258 55.0765 34.4585 55.3402 34.42 55.6263C33.3993 63.17 39.5366 74.1945 59.4332 97.7857L58.9106 98.7297Z" fill="#ABD3F2"/>
</g>
<path id="Vector_46" d="M35.6763 66.0666C35.6763 66.0666 32.1878 68.6976 27.802 62.3835C27.802 62.3835 34.2839 59.8704 35.6763 66.0666Z" fill="#CAE6FE"/>
<path id="Vector_47" d="M37.7697 69.4383C37.7697 69.4383 34.9488 66.1015 41.009 61.3711C41.009 61.3711 43.8786 67.7034 37.7697 69.4383Z" fill="#CAE6FE"/>
<path id="Vector_48" d="M33.9317 58.8301C33.9317 58.8301 30.1597 56.6251 34.2958 50.1445C34.2958 50.1445 39.1128 55.1577 33.9317 58.8301Z" fill="#CAE6FE"/>
<path id="Vector_49" d="M41.7706 76.3526C41.7706 76.3526 39.3779 80.0085 33.1143 75.5502C33.1143 75.5502 38.3644 70.9931 41.7706 76.3526Z" fill="#CAE6FE"/>
<path id="Vector_50" d="M44.4224 79.4654C44.4224 79.4654 41.0671 76.6669 46.2176 70.9595C46.2176 70.9595 50.1392 76.7 44.4224 79.4654Z" fill="#CAE6FE"/>
<path id="Vector_51" d="M47.6309 84.0875C47.6309 84.0875 45.3076 87.7879 38.9609 83.4496C38.9609 83.4496 44.1233 78.7937 47.6309 84.0875Z" fill="#CAE6FE"/>
</g>
<g id="Group_73">
<g id="Group_74">
<path id="Vector_52" d="M99.7478 36.406C102.857 27.8103 106.033 20.6638 109.205 15.1318C113.35 7.90428 117.506 3.43198 121.56 1.83906C121.828 1.73352 122.131 1.86577 122.237 2.1345C122.343 2.40324 122.211 2.70674 121.942 2.81228C114.857 5.59671 107.257 18.0947 99.9424 38.9764L99.7478 36.406Z" fill="#ABD3F2"/>
</g>
<path id="Vector_53" d="M113.438 8.99737C113.438 8.99737 109.44 7.23321 112.817 0.326172C112.817 0.326172 118.169 4.76202 113.438 8.99737Z" fill="#CAE6FE"/>
<path id="Vector_54" d="M111.512 12.4676C111.512 12.4676 113.051 8.37811 120.135 11.3652C120.135 11.3652 116.004 16.9565 111.512 12.4676Z" fill="#CAE6FE"/>
<path id="Vector_55" d="M118.906 3.94756C118.906 3.94756 118.994 -0.420889 126.668 0.033081C126.668 0.033081 124.638 6.68198 118.906 3.94756Z" fill="#CAE6FE"/>
<path id="Vector_56" d="M107.424 19.3306C107.424 19.3306 103.066 19.0225 103.907 11.3809C103.907 11.3809 110.445 13.7444 107.424 19.3306Z" fill="#CAE6FE"/>
<path id="Vector_57" d="M105.999 23.1635C105.999 23.1635 106.808 18.8696 114.301 20.5863C114.301 20.5863 111.2 26.808 105.999 23.1635Z" fill="#CAE6FE"/>
<path id="Vector_58" d="M103.526 28.2174C103.526 28.2174 99.1621 27.9919 99.8585 20.3354C99.8585 20.3354 106.44 22.5752 103.526 28.2174Z" fill="#CAE6FE"/>
</g>
</g>
<g id="Group_75">
<g id="Group_76">
<path id="Vector_59" d="M128.576 33.4075V156.93C128.576 160.802 125.438 163.94 121.566 163.94H60.0538C58.1082 163.94 56.3496 163.149 55.0792 161.87C53.8216 160.602 53.0442 158.857 53.0442 156.93V33.4075C53.0442 29.5354 56.1821 26.3975 60.0542 26.3975H121.566C122.711 26.3975 123.791 26.6713 124.746 27.1587C127.02 28.3172 128.576 30.6799 128.576 33.4075Z" fill="#2A365C"/>
<path id="Vector_60" d="M128.575 33.4075V156.93C128.575 160.802 125.437 163.94 121.565 163.94H60.0532C58.1076 163.94 56.349 163.149 55.0786 161.87L124.745 27.1587C127.019 28.3171 128.575 30.6798 128.575 33.4075Z" fill="#16162F"/>
</g>
<g id="Group_77">
<path id="Vector_61" d="M53.0439 64.9364H52.0309C51.1742 64.9364 50.4795 64.2417 50.4795 63.385V50.1691C50.4795 49.3124 51.1742 48.6177 52.0309 48.6177H53.0439V64.9364Z" fill="#16162F"/>
<path id="Vector_62" d="M128.576 60.6665H129.405C130.106 60.6665 130.674 60.0985 130.674 59.3974V48.648C130.674 47.9469 130.106 47.3789 129.405 47.3789H128.576V60.6665Z" fill="#16162F"/>
<path id="Vector_63" d="M53.0439 83.4691H52.0309C51.1742 83.4691 50.4795 82.7748 50.4795 81.9178V68.7018C50.4795 67.8451 51.1742 67.1504 52.0309 67.1504H53.0439V83.4691Z" fill="#16162F"/>
</g>
<g id="Group_78">
<path id="Vector_64" d="M125.079 33.1028V157.235C125.079 159.007 123.642 160.444 121.871 160.444H59.7488C58.428 160.444 57.2942 159.645 56.8025 158.505C56.6334 158.116 56.5405 157.687 56.5405 157.235V33.1028C56.5405 31.3306 57.9766 29.8945 59.7488 29.8945H121.871C122.339 29.8945 122.785 29.9946 123.185 30.1756C124.301 30.677 125.079 31.799 125.079 33.1028Z" fill="#FEFDFF"/>
<g id="Group_79">
<g id="Group_80">
<g id="Group_81">
<g id="Group_82">
<path id="Vector_65" d="M118.742 124.811H80.9269C80.2398 124.811 79.6829 124.254 79.6829 123.567C79.6829 122.88 80.2398 122.323 80.9269 122.323H118.742C119.429 122.323 119.986 122.88 119.986 123.567C119.986 124.254 119.429 124.811 118.742 124.811Z" fill="#CAE6FE"/>
</g>
<g id="Group_83">
<path id="Vector_66" d="M118.741 130.201H80.9267C80.2396 130.201 79.6826 129.644 79.6826 128.957C79.6826 128.27 80.2396 127.713 80.9267 127.713H118.741C119.428 127.713 119.985 128.27 119.985 128.957C119.985 129.644 119.428 130.201 118.741 130.201Z" fill="#CAE6FE"/>
</g>
<g id="Group_84">
<path id="Vector_67" d="M118.741 135.591H80.9267C80.2396 135.591 79.6826 135.034 79.6826 134.347C79.6826 133.66 80.2396 133.103 80.9267 133.103H118.741C119.428 133.103 119.985 133.66 119.985 134.347C119.985 135.034 119.428 135.591 118.741 135.591Z" fill="#CAE6FE"/>
</g>
</g>
</g>
<path id="Vector_68" d="M76.3096 122.327H63.0513V135.585H76.3096V122.327Z" fill="#CAE6FE"/>
<g id="Group_85">
<g id="Group_86">
<g id="Group_87">
<g id="Group_88">
<path id="Vector_69" d="M84.88 46.0386H64.2953C63.6082 46.0386 63.0513 46.5955 63.0513 47.2826C63.0513 47.9697 63.6082 48.5267 64.2953 48.5267H84.88C85.5671 48.5267 86.124 47.9697 86.124 47.2826C86.124 46.5955 85.5671 46.0386 84.88 46.0386Z" fill="#CAE6FE"/>
</g>
<g id="Group_89">
<path id="Vector_70" d="M84.88 51.4292H64.2953C63.6082 51.4292 63.0513 51.9862 63.0513 52.6733C63.0513 53.3604 63.6082 53.9173 64.2953 53.9173H84.88C85.5671 53.9173 86.124 53.3604 86.124 52.6733C86.124 51.9862 85.5671 51.4292 84.88 51.4292Z" fill="#CAE6FE"/>
</g>
<g id="Group_90">
<path id="Vector_71" d="M84.88 56.8188H64.2953C63.6082 56.8188 63.0513 57.3758 63.0513 58.0629C63.0513 58.75 63.6082 59.307 64.2953 59.307H84.88C85.5671 59.307 86.124 58.75 86.124 58.0629C86.124 57.3758 85.5671 56.8188 84.88 56.8188Z" fill="#CAE6FE"/>
</g>
</g>
</g>
<g id="Group_91">
<g id="Group_92">
<g id="Group_93">
<path id="Vector_72" d="M118.705 46.0386H98.1203C97.4332 46.0386 96.8762 46.5955 96.8762 47.2826C96.8762 47.9697 97.4332 48.5267 98.1203 48.5267H118.705C119.392 48.5267 119.949 47.9697 119.949 47.2826C119.949 46.5955 119.392 46.0386 118.705 46.0386Z" fill="#CAE6FE"/>
</g>
<g id="Group_94">
<path id="Vector_73" d="M118.705 51.4292H98.1205C97.4334 51.4292 96.8765 51.9862 96.8765 52.6733C96.8765 53.3604 97.4334 53.9173 98.1205 53.9173H118.705C119.392 53.9173 119.949 53.3604 119.949 52.6733C119.949 51.9862 119.392 51.4292 118.705 51.4292Z" fill="#CAE6FE"/>
</g>
<g id="Group_95">
<path id="Vector_74" d="M118.705 56.8188H98.1205C97.4334 56.8188 96.8765 57.3758 96.8765 58.0629C96.8765 58.75 97.4334 59.307 98.1205 59.307H118.705C119.392 59.307 119.949 58.75 119.949 58.0629C119.949 57.3758 119.392 56.8188 118.705 56.8188Z" fill="#CAE6FE"/>
</g>
</g>
</g>
</g>
</g>
<g id="Group_96">
<path id="Vector_75" d="M66.7109 30.8694L70.1087 36.039C71.0565 37.481 72.6664 38.3496 74.3924 38.3496H107.228C108.953 38.3496 110.564 37.481 111.511 36.039L114.909 30.8694C114.909 30.3337 114.471 29.8945 113.934 29.8945H67.6859C67.1505 29.8945 66.7109 30.3341 66.7109 30.8694Z" fill="#2A365C"/>
<path id="Vector_76" d="M101.966 34.607H73.8311C73.2593 34.607 72.7917 34.139 72.7917 33.5677C72.7917 32.9959 73.2597 32.5283 73.8311 32.5283H101.966C102.538 32.5283 103.006 32.9963 103.006 33.5677C103.006 34.139 102.538 34.607 101.966 34.607Z" fill="#445279"/>
<path id="Vector_77" d="M108.521 33.4984C108.521 34.1872 107.962 34.7459 107.273 34.7459C106.584 34.7459 106.026 34.1877 106.026 33.4984C106.026 32.8096 106.584 32.251 107.273 32.251C107.962 32.251 108.521 32.8096 108.521 33.4984Z" fill="#445279"/>
</g>
</g>
<g id="Group_97">
<g id="Group_98">
<g id="Group_99">
<path id="Vector_78" d="M120.566 84.7744H61.3882V111.661H120.566V84.7744Z" fill="#45A9EA"/>
<path id="Vector_79" d="M120.566 84.7744H61.3882V86.9095H120.566V84.7744Z" fill="#45A9EA"/>
<path id="Vector_80" d="M120.566 83.1747H61.3882L65.9953 72.2676H115.959L120.566 83.1747Z" fill="#445279"/>
<path id="Vector_81" d="M122.443 83.1011H58.7588V84.7741H122.443V83.1011Z" fill="#2A365C"/>
<path id="Vector_82" d="M103.438 111.661H78.5164V90.8053L91.3119 83.8521L103.438 90.122V111.661Z" fill="#45A9EA"/>
<path id="Vector_83" d="M79.1877 92.7065H77.092V111.661H79.1877V92.7065Z" fill="#45A9EA"/>
<path id="Vector_84" d="M104.89 92.7065H102.794V111.661H104.89V92.7065Z" fill="#45A9EA"/>
<g id="Group_100">
<path id="Vector_85" d="M95.2402 97.6245H86.7144V111.696H95.2402V97.6245Z" fill="#2A365C"/>
<path id="Vector_86" d="M94.382 98.4824H87.572V111.696H94.382V98.4824Z" fill="#445279"/>
<path id="Vector_87" d="M93.9458 105.49C93.9458 105.885 93.6258 106.205 93.2307 106.205C92.8357 106.205 92.5156 105.885 92.5156 105.49C92.5156 105.095 92.8357 104.775 93.2307 104.775C93.6258 104.775 93.9458 105.095 93.9458 105.49Z" fill="#2A365C"/>
<path id="Vector_88" d="M96.2405 97.6246H85.714C85.363 97.6246 85.0786 97.3402 85.0786 96.9892V96.5742H96.8763V96.9892C96.8759 97.3402 96.5915 97.6246 96.2405 97.6246Z" fill="#2A365C"/>
<g id="Group_101">
<path id="Vector_89" d="M90.6011 99.4521H88.5V103.73H90.6011V99.4521Z" fill="#CAE6FE"/>
<path id="Vector_90" d="M90.6011 99.6211V100.887L88.5 102.987V101.721L90.6011 99.6211Z" fill="#FEFDFF"/>
<path id="Vector_91" opacity="0.2" d="M90.6011 99.4521H88.5V100.057H90.6011V99.4521Z" fill="black"/>
</g>
<g id="Group_102">
<path id="Vector_92" d="M93.5662 99.4521H91.4651V103.73H93.5662V99.4521Z" fill="#CAE6FE"/>
<path id="Vector_93" d="M93.566 99.6211V100.887L91.4648 102.987V101.721L93.566 99.6211Z" fill="#FEFDFF"/>
<path id="Vector_94" opacity="0.2" d="M93.5662 99.4521H91.4651V100.057H93.5662V99.4521Z" fill="black"/>
</g>
</g>
<path id="Vector_95" d="M122.443 83.1129H58.7588V82.2117C58.7588 81.4496 59.3764 80.832 60.1385 80.832H121.064C121.826 80.832 122.444 81.4496 122.444 82.2117V83.1129H122.443Z" fill="#2A365C"/>
<g id="Group_103">
<g id="Group_104">
<path id="Vector_96" d="M109.728 92.7255L106.315 92.7161L102.766 92.7064L90.9773 84.7587L79.1876 92.7064L75.6394 92.7161L72.2263 92.7255L90.9773 80.0859L109.728 92.7255Z" fill="#445279"/>
</g>
<g id="Group_105">
<path id="Vector_97" d="M106.315 92.716L102.766 92.7063L90.9771 84.7586L79.1874 92.7063L75.6392 92.716L90.9771 82.3765L106.315 92.716Z" fill="#2A365C"/>
</g>
</g>
<g id="Group_106">
<g id="Group_107">
<g id="Group_108">
<g id="Group_109">
<g id="Group_110">
<path id="Vector_98" d="M72.3196 96.3604H67.2937V105.739H72.3196V96.3604Z" fill="#CAE6FE"/>
<g id="Group_111">
<path id="Vector_99" d="M72.3195 96.3604H70.5481L67.3071 99.6013V102.25L72.3195 97.2373V96.3604Z" fill="#FEFDFF"/>
</g>
<g id="Group_112">
<path id="Vector_100" d="M72.3195 100.327L67.3071 105.339V105.74H68.2299L72.3195 101.65V100.327Z" fill="#FEFDFF"/>
</g>
<path id="Vector_101" d="M66.6064 95.6738V106.426H72.319V95.6738H66.6064ZM67.2935 96.3601H71.6196V100.695H67.2935V96.3601ZM67.2935 105.739V101.404H71.6196V105.739H67.2935Z" fill="#445279"/>
</g>
<path id="Vector_102" opacity="0.2" d="M72.3186 95.7329H66.6064V96.8401H72.3186V95.7329Z" fill="black"/>
</g>
</g>
<path id="Vector_103" d="M72.9009 95.6736H66.0256C65.7353 95.6736 65.5 95.4384 65.5 95.148V94.8047H73.4265V95.148C73.4265 95.4384 73.1908 95.6736 72.9009 95.6736Z" fill="#2A365C"/>
</g>
<path id="Vector_104" d="M72.319 106.426H66.6064V107.526H72.319V106.426Z" fill="#45A9EA"/>
</g>
<g id="Group_113">
<g id="Group_114">
<g id="Group_115">
<g id="Group_116">
<g id="Group_117">
<path id="Vector_105" d="M116.547 96.3604H111.521V105.739H116.547V96.3604Z" fill="#CAE6FE"/>
<g id="Group_118">
<path id="Vector_106" d="M116.547 96.3604H114.776L111.535 99.6013V102.25L116.547 97.2373V96.3604Z" fill="#FEFDFF"/>
</g>
<g id="Group_119">
<path id="Vector_107" d="M116.547 100.327L111.535 105.339V105.74H112.457L116.547 101.65V100.327Z" fill="#FEFDFF"/>
</g>
<path id="Vector_108" d="M110.835 95.6738V106.426H116.547V95.6738H110.835ZM111.522 96.3601H115.848V100.695H111.522V96.3601ZM111.522 105.739V101.404H115.848V105.739H111.522Z" fill="#445279"/>
</g>
<path id="Vector_109" opacity="0.2" d="M116.547 95.7329H110.834V96.8401H116.547V95.7329Z" fill="black"/>
</g>
</g>
<path id="Vector_110" d="M117.128 95.6736H110.253C109.963 95.6736 109.728 95.4384 109.728 95.148V94.8047H117.654V95.148C117.654 95.4384 117.418 95.6736 117.128 95.6736Z" fill="#2A365C"/>
</g>
<path id="Vector_111" d="M116.547 106.426H110.835V107.526H116.547V106.426Z" fill="#45A9EA"/>
</g>
<path id="Vector_112" d="M114.685 74.4368H67.5931C67.4274 74.4368 67.2935 74.3024 67.2935 74.1371V73.7455C67.2935 73.5797 67.4278 73.4458 67.5931 73.4458H114.685C114.85 73.4458 114.985 73.5802 114.985 73.7455V74.1371C114.985 74.3029 114.85 74.4368 114.685 74.4368Z" fill="#2A365C"/>
<path id="Vector_113" d="M115.315 77.0428H66.5978C66.432 77.0428 66.2981 76.9084 66.2981 76.7431V76.3514C66.2981 76.1857 66.4325 76.0518 66.5978 76.0518H115.316C115.482 76.0518 115.615 76.1861 115.615 76.3514V76.7431C115.615 76.9084 115.481 77.0428 115.315 77.0428Z" fill="#2A365C"/>
<path id="Vector_114" d="M117.354 79.6487H65.1112C64.9455 79.6487 64.8115 79.5144 64.8115 79.3491V78.9574C64.8115 78.7921 64.9459 78.6577 65.1112 78.6577H117.354C117.52 78.6577 117.654 78.7921 117.654 78.9574V79.3491C117.654 79.5144 117.52 79.6487 117.354 79.6487Z" fill="#2A365C"/>
<g id="Group_120">
<g id="Group_121">
<path id="Vector_115" d="M76.0713 68.8237H69.4631V76.278H76.0713V68.8237Z" fill="#45A9EA"/>
<path id="Vector_116" d="M76.0713 68.8237H69.4631V70.7388H76.0713V68.8237Z" fill="#45A9EA"/>
</g>
<g id="Group_122">
<path id="Vector_117" d="M77.4509 66.3018V67.1872C77.4509 67.3161 77.4356 67.442 77.4068 67.5628C77.2372 68.2851 76.5879 68.8238 75.8143 68.8238H69.7198C68.9458 68.8238 68.2965 68.2851 68.1273 67.5628C68.0985 67.442 68.0833 67.3161 68.0833 67.1872V66.3018H77.4509Z" fill="#445279"/>
<path id="Vector_118" d="M77.4069 67.563C77.2374 68.2853 76.588 68.824 75.8144 68.824H69.7199C68.9459 68.824 68.2966 68.2853 68.1274 67.563H77.4069Z" fill="#2A365C"/>
</g>
</g>
<path id="Vector_119" d="M121.663 113.329H60.2178C59.9393 113.329 59.7134 113.103 59.7134 112.825V112.166C59.7134 111.888 59.9393 111.662 60.2178 111.662H121.663C121.941 111.662 122.167 111.888 122.167 112.166V112.825C122.167 113.103 121.942 113.329 121.663 113.329Z" fill="#445279"/>
<path id="Vector_120" d="M123.224 114.97H58.6568C58.3783 114.97 58.1523 114.744 58.1523 114.465V113.807C58.1523 113.528 58.3783 113.302 58.6568 113.302H123.224C123.503 113.302 123.729 113.528 123.729 113.807V114.465C123.729 114.744 123.503 114.97 123.224 114.97Z" fill="#2A365C"/>
</g>
<path id="Vector_121" d="M79.1877 92.726V95.2591L91.1393 87.5662L102.794 95.2591L102.767 92.726L90.9774 84.7788L79.1877 92.726Z" fill="#45A9EA"/>
</g>
</g>
<path id="Vector_122" opacity="0.3" d="M125.079 33.1026V157.235C125.079 159.006 123.642 160.443 121.87 160.443H59.7486C58.4278 160.443 57.2939 159.645 56.8022 158.505L123.184 30.1753C124.3 30.6767 125.079 31.7987 125.079 33.1026Z" fill="#FEFDFF"/>
</g>
<g id="Group_123">
<path id="Vector_123" d="M17.2944 141.258L22.4454 142.981C23.0969 143.199 23.8013 142.847 24.0184 142.196L28.3847 129.148L30.1908 123.752L22.6823 121.239L21.6124 124.436L16.5098 139.684C16.2915 140.334 16.6429 141.039 17.2944 141.258Z" fill="#45A9EA"/>
<path id="Vector_124" d="M21.6128 124.436C23.107 126.096 25.367 128.052 28.385 129.148L30.1912 123.752L22.6827 121.239L21.6128 124.436Z" fill="#45A9EA"/>
<g id="Group_124">
<path id="Vector_125" d="M22.2004 142.899L21.6981 144.401L15.2298 163.731C14.7987 165.019 13.4063 165.713 12.1185 165.282C10.8321 164.851 10.1369 163.458 10.5684 162.171L16.4264 144.666L17.539 141.339L22.2004 142.899Z" fill="#2A365C"/>
<path id="Vector_126" d="M22.2005 142.899L21.6982 144.401L16.4265 144.666L17.5392 141.339L22.2005 142.899Z" fill="#16162F"/>
</g>
<g id="Group_125">
<path id="Vector_127" d="M11.7216 96.2961C7.75969 107.939 13.9851 120.59 25.629 124.552C37.2724 128.515 49.9229 122.288 53.8853 110.645C57.8477 99.0017 51.6218 86.3503 39.9784 82.3875C28.3346 78.4255 15.684 84.6527 11.7216 96.2961ZM14.9545 97.3965C18.304 87.5541 29.0357 82.2713 38.878 85.6208C48.7204 88.9703 54.0014 99.7028 50.652 109.545C47.303 119.386 36.5713 124.669 26.7289 121.319C16.887 117.97 11.6055 107.238 14.9545 97.3965Z" fill="#445279"/>
<path id="Vector_128" opacity="0.5" d="M13.996 104.794C14.7255 115.163 23.7557 123.008 34.1267 122.278C35.016 122.216 35.8879 122.092 36.7369 121.911C38.9368 121.443 40.9862 120.595 42.8187 119.441C44.7295 118.238 46.4042 116.704 47.7661 114.926C49.9088 112.133 51.28 108.737 51.5912 105.076C51.673 104.116 51.681 103.138 51.6115 102.147C50.882 91.7765 41.8518 83.9323 31.4809 84.6618C30.4903 84.7313 29.5226 84.8767 28.5828 85.092C25.0007 85.9126 21.8296 87.7472 19.3652 90.2595C17.7952 91.8566 16.5109 93.7297 15.5885 95.7902C14.703 97.7659 14.1499 99.9141 13.9948 102.158C13.9337 103.024 13.9333 103.904 13.996 104.794Z" fill="#FEFDFF"/>
<path id="Vector_129" opacity="0.5" d="M19.3645 90.2597L47.7658 114.926C49.9085 112.133 51.2797 108.738 51.5908 105.076L28.5821 85.0923C24.9999 85.9129 21.8289 87.7474 19.3645 90.2597Z" fill="#FEFDFF"/>
<path id="Vector_130" opacity="0.5" d="M13.9939 102.158L36.7369 121.911C38.9368 121.443 40.9862 120.595 42.8186 119.441L15.5881 95.7905C14.7022 97.7662 14.149 99.9144 13.9939 102.158Z" fill="#FEFDFF"/>
</g>
</g>
<g id="Group_126">
<g id="Group_127">
<g id="Group_128">
<g id="Group_129">
<path id="Vector_131" d="M139.886 154.47L139.649 158.748L143.119 158.824L143.544 154.331L139.886 154.47Z" fill="#FBA691"/>
<g id="Group_130">
<path id="Vector_132" d="M141.026 158.147C141.026 158.147 142.812 157.743 143.301 157.771C143.79 157.799 146.927 161.587 148.022 161.844C150.007 162.311 149.891 165.435 148.668 165.544C145.13 165.859 139.163 164.143 139.163 164.143C139.163 164.143 138.76 160.114 139.049 158.865C139.338 157.617 140.028 158.48 141.026 158.147Z" fill="#45A9EA"/>
<g id="Group_131">
<g id="Group_132">
<path id="Vector_133" d="M143.811 161.679C143.748 161.69 143.681 161.677 143.624 161.636C143.515 161.557 143.491 161.404 143.571 161.295C143.597 161.259 144.229 160.4 144.981 160.121C145.981 159.749 146.66 160.367 146.688 160.393C146.787 160.485 146.792 160.64 146.7 160.738C146.608 160.837 146.454 160.842 146.355 160.75C146.337 160.734 145.863 160.315 145.151 160.579C144.538 160.806 143.971 161.575 143.965 161.583C143.927 161.635 143.871 161.668 143.811 161.679Z" fill="#FEFDFF"/>
</g>
<g id="Group_133">
<path id="Vector_134" d="M143.165 160.915C143.102 160.927 143.034 160.913 142.977 160.872C142.868 160.793 142.844 160.64 142.924 160.531C142.951 160.495 143.582 159.636 144.334 159.357C145.335 158.984 146.013 159.602 146.042 159.629C146.14 159.721 146.145 159.876 146.053 159.974C145.962 160.073 145.807 160.078 145.708 159.986C145.69 159.969 145.216 159.551 144.504 159.814C143.888 160.043 143.324 160.811 143.319 160.818C143.28 160.871 143.224 160.904 143.165 160.915Z" fill="#FEFDFF"/>
</g>
<g id="Group_134">
<path id="Vector_135" d="M144.729 162.343C144.666 162.355 144.598 162.341 144.542 162.3C144.433 162.221 144.409 162.069 144.488 161.96C144.515 161.923 145.147 161.064 145.899 160.785C146.9 160.413 147.578 161.031 147.606 161.057C147.704 161.149 147.71 161.303 147.618 161.402C147.526 161.501 147.372 161.506 147.273 161.414C147.254 161.397 146.78 160.978 146.068 161.242C145.453 161.47 144.889 162.239 144.883 162.246C144.845 162.3 144.789 162.332 144.729 162.343Z" fill="#FEFDFF"/>
</g>
</g>
</g>
</g>
<g id="Group_135">
<path id="Vector_136" d="M152.647 102.348C152.647 102.348 152.575 103.352 152.444 105.018C152.41 105.459 152.372 105.947 152.33 106.476C151.88 112.067 151.011 122.177 150.062 129.349C148.731 139.403 144.539 155.926 144.539 155.926L140.211 155.777L139.783 155.76L138.757 155.726C138.757 155.726 139.478 145.274 140.397 136.198C141.004 130.213 141.364 116.052 141.538 107.108C141.627 102.496 141.669 99.2705 141.669 99.2705L152.647 102.348Z" fill="#2A365C"/>
</g>
<path id="Vector_137" d="M152.648 102.348C152.648 102.348 152.576 103.352 152.444 105.018C152.41 105.459 152.372 105.947 152.33 106.476C150.333 106.849 144.844 107.108 141.538 107.108C141.627 102.496 141.669 99.2705 141.669 99.2705L152.648 102.348Z" fill="#16162F"/>
<g id="Group_136">
<path id="Vector_138" d="M144.001 104.945C143.997 105.288 143.598 137.872 140.212 155.776L139.783 155.759C143.174 137.91 143.573 105.28 143.577 104.941L144.001 104.945Z" fill="#16162F"/>
</g>
</g>
<g id="Group_137">
<g id="Group_138">
<path id="Vector_139" d="M167.027 155.292L166.885 159.151L163.358 158.964L163.278 154.867L167.027 155.292Z" fill="#FBA691"/>
<g id="Group_139">
<g id="Group_140">
<g id="Group_141">
<path id="Vector_140" d="M165.986 158.973C165.986 158.973 166.754 157.972 167.353 158.024C167.951 158.076 172.514 161.815 174.091 162.142C175.669 162.468 175.344 163.628 175.045 164.22C174.747 164.811 162.43 163.809 162.43 163.809C162.43 163.809 162.145 160.134 162.565 159.018C162.984 157.901 164.745 159.221 165.986 158.973Z" fill="#45A9EA"/>
<g id="Group_142">
<g id="Group_143">
<path id="Vector_141" d="M168.5 161.573C168.443 161.588 168.381 161.582 168.327 161.55C168.221 161.488 168.187 161.352 168.248 161.247C168.269 161.211 168.765 160.379 169.42 160.061C170.291 159.637 170.959 160.136 170.987 160.158C171.084 160.232 171.102 160.371 171.028 160.468C170.954 160.565 170.815 160.584 170.717 160.509C170.699 160.496 170.234 160.159 169.613 160.46C169.08 160.719 168.635 161.464 168.63 161.472C168.6 161.523 168.553 161.558 168.5 161.573Z" fill="#FEFDFF"/>
</g>
<g id="Group_144">
<path id="Vector_142" d="M167.849 160.939C167.793 160.955 167.73 160.949 167.676 160.916C167.57 160.854 167.535 160.718 167.597 160.613C167.618 160.578 168.114 159.746 168.768 159.428C169.641 159.003 170.307 159.502 170.335 159.524C170.433 159.598 170.451 159.738 170.377 159.835C170.302 159.932 170.163 159.95 170.066 159.876C170.048 159.862 169.583 159.525 168.962 159.827C168.426 160.087 167.983 160.831 167.979 160.838C167.949 160.889 167.902 160.924 167.849 160.939Z" fill="#FEFDFF"/>
</g>
<g id="Group_145">
<path id="Vector_143" d="M169.388 162.092C169.332 162.108 169.269 162.102 169.215 162.07C169.109 162.008 169.074 161.872 169.137 161.767C169.157 161.731 169.653 160.899 170.308 160.581C171.18 160.157 171.847 160.656 171.875 160.677C171.972 160.751 171.99 160.891 171.916 160.988C171.842 161.085 171.703 161.104 171.606 161.029C171.587 161.016 171.122 160.679 170.502 160.98C169.966 161.24 169.523 161.984 169.519 161.992C169.488 162.043 169.441 162.077 169.388 162.092Z" fill="#FEFDFF"/>
</g>
</g>
</g>
</g>
</g>
</g>
<path id="Vector_144" d="M167.669 156.299L164.084 156.032L163.656 156.002L162.785 155.937C162.785 155.937 160.583 134.974 159.898 129.39C159.302 124.539 156.522 113.639 154.716 106.857C154.204 104.932 153.771 103.339 153.485 102.309C153.268 101.499 153.139 101.039 153.139 101.039L165.125 99.8784C165.125 99.8784 165.159 100.142 165.214 100.616C165.331 101.585 165.555 103.444 165.826 105.779C166.574 112.136 167.713 122.03 168.154 127.066C169.285 140.034 167.669 156.299 167.669 156.299Z" fill="#2A365C"/>
<path id="Vector_145" d="M165.826 105.78L154.716 106.857C154.205 104.932 153.771 103.338 153.486 102.309L165.214 100.616C165.331 101.586 165.556 103.444 165.826 105.78Z" fill="#16162F"/>
<g id="Group_146">
<path id="Vector_146" d="M164.084 156.032L163.657 156.002C163.448 149.52 162.812 133.33 161.513 126.466C159.881 117.815 156.128 105.217 156.089 105.089L156.497 104.968C156.536 105.096 160.296 117.715 161.93 126.389C163.237 133.295 163.879 149.562 164.084 156.032Z" fill="#16162F"/>
</g>
</g>
<g id="Group_147">
<path id="Vector_147" d="M164.446 69.9354C164.681 71.502 164.924 73.0051 165.136 74.264C165.476 76.2944 165.734 77.6893 165.734 77.6893L167.573 82.9602C168.204 84.7629 170.296 85.573 171.977 84.6646C172.005 84.6506 172.038 84.6383 172.063 84.6184C172.677 84.1462 173.165 83.2294 173.618 81.0718C173.618 81.0718 173.618 81.0718 173.618 81.071C173.632 80.8845 175.262 72.8411 175.277 69.946L171.551 69.5921C171.391 69.2436 170.591 73.3811 170.414 72.9992C170.301 72.7529 170.184 72.499 170.066 72.2421C169.868 71.8153 169.662 71.374 169.454 70.9234C169.157 70.2847 168.851 69.626 168.541 68.9622C166.264 64.0605 163.838 58.8735 163.838 58.8735C163.051 59.3131 163.702 64.946 164.446 69.9354Z" fill="#FBA691"/>
<path id="Vector_148" d="M164.446 69.9352C164.681 71.5023 164.924 73.0053 165.136 74.2642C167.3 73.4508 168.685 71.9808 169.454 70.9237C169.157 70.2845 168.851 69.6258 168.542 68.9624L164.446 69.9352Z" fill="#FD857D"/>
<g id="Group_148">
<path id="Vector_149" d="M169.394 79.3659C169.407 79.3667 169.418 79.3659 169.431 79.3655C169.546 79.3587 169.641 79.2688 169.652 79.151C169.903 76.3377 170.206 74.2523 170.415 72.9997C170.301 72.7534 170.184 72.4995 170.065 72.2427C169.865 73.3477 169.485 75.6989 169.18 79.1086C169.168 79.2387 169.264 79.3532 169.394 79.3659Z" fill="#FD857D"/>
</g>
<path id="Vector_150" d="M170.93 68.6623C170.93 68.6623 170.476 69.2726 169.66 69.9619C168.672 70.8003 166.826 71.8685 164.947 71.9986C163.143 66.3382 162.576 59.1988 163.122 57.3101C164.052 58.3274 168.789 63.9886 170.93 68.6623Z" fill="#45A9EA"/>
<g id="Group_149">
<path id="Vector_151" d="M169.659 68.76L169.718 68.7952L170.22 69.083L170.338 68.8719L174.697 68.7523C175.065 68.7434 175.367 68.4582 175.4 68.0911L176.201 58.9825C176.205 58.9367 176.206 58.8913 176.201 58.8489L176.368 58.5925L175.842 58.2907L175.822 58.2797L175.807 58.2712C175.703 58.2186 175.584 58.1894 175.459 58.1932L170.837 58.3199C170.469 58.3288 170.166 58.6141 170.135 58.9808L169.334 68.0894C169.311 68.3666 169.445 68.618 169.659 68.76Z" fill="#2A365C"/>
<path id="Vector_152" d="M170.606 69.1809L175.226 69.055C175.595 69.0448 175.897 68.7604 175.929 68.3933L176.73 59.2838C176.768 58.8519 176.421 58.4835 175.988 58.4954L171.367 58.6213C170.999 58.6315 170.697 58.9159 170.665 59.2829L169.864 68.3924C169.826 68.8239 170.173 69.1927 170.606 69.1809Z" fill="#445279"/>
</g>
<path id="Vector_153" d="M176.379 63.2724C176.807 63.3216 176.452 63.9502 176.735 64.8314C177.087 65.9293 175.264 70.4402 175.264 70.4402C173.494 71.2442 171.37 69.8332 171.37 69.8332C171.37 69.8332 170.915 66.3964 171.339 64.8433C171.339 64.8433 171.59 63.4555 171.664 62.6413C171.737 61.8321 172.098 60.9042 172.354 61.0687C172.61 61.2332 172.674 61.8944 172.679 62.3963C172.684 62.8982 172.786 63.8578 172.786 63.8578C172.786 63.8578 172.923 62.6722 172.944 62.0186C172.966 61.3654 172.915 60.3269 173.313 60.123C173.814 59.8666 173.956 61.2582 174.021 61.7626C174.085 62.267 173.887 63.8349 173.887 63.8349C173.887 63.8349 174.228 62.0758 174.142 61.5549C174.056 61.0335 173.948 60.0162 173.974 59.5852C174 59.1541 174.554 59.2253 174.72 59.756C174.887 60.2867 175.077 61.3531 175.123 61.7105C175.182 62.1661 175.07 63.6836 175.07 63.6836C175.07 63.6836 175.288 61.9555 175.274 61.4989C175.262 61.1281 175.148 60.3952 175.28 59.9679C175.412 59.5406 175.924 59.4593 176.088 60.5817C176.251 61.7041 176.279 61.8368 176.247 62.1729C176.191 62.7651 176.09 63.4212 176.157 63.6649C176.191 63.7866 176.331 63.7883 176.331 63.7883L176.379 63.2724Z" fill="#FBA691"/>
</g>
<g id="Group_150">
<g id="Group_151">
<path id="Vector_154" d="M167.066 100.804C158.137 103.649 149.06 104.189 139.834 102.45C139.657 99.9379 139.191 91.6927 138.839 83.0037C138.827 82.7155 138.814 82.4272 138.803 82.1386C138.795 81.9071 138.786 81.6761 138.777 81.4434C138.77 81.2768 138.763 81.109 138.757 80.9411C138.754 80.8648 138.751 80.7885 138.749 80.7118C138.739 80.485 138.733 80.2532 138.724 80.0277C138.716 79.8382 138.706 79.6491 138.7 79.4597C138.7 79.4338 138.698 79.4071 138.697 79.3813C138.697 79.3575 138.696 79.3351 138.695 79.3113C138.686 79.1125 138.681 78.912 138.673 78.7154C138.672 78.6768 138.67 78.6378 138.669 78.6001C138.662 78.361 138.652 78.1223 138.645 77.8846C138.638 77.7201 138.633 77.5586 138.626 77.3971C138.624 77.3314 138.622 77.2657 138.62 77.2C138.611 77.0173 138.605 76.8333 138.601 76.6524C138.599 76.5972 138.597 76.5426 138.596 76.4875C138.591 76.3205 138.587 76.1526 138.582 75.9848C138.58 75.9135 138.579 75.8428 138.577 75.7715C138.57 75.5325 138.558 75.2951 138.556 75.0599C138.546 74.8284 138.541 74.6012 138.535 74.3753C138.53 74.2236 138.525 74.0731 138.52 73.9222C138.51 73.5937 138.502 73.2686 138.495 72.9468C138.304 65.5032 138.327 59.396 138.861 58.5601C140.1 56.623 146.097 53.505 147.906 52.063L147.924 52.3605C147.924 52.3605 149.202 53.8547 150.527 53.6572C151.731 53.4821 152.573 52.0248 152.713 51.7607C153.694 52.3677 155.93 53.307 158.104 54.3239C160.278 55.337 162.389 56.4204 163.121 57.3088C163.748 58.0744 164.449 64.0289 165.087 71.3399L165.088 71.3637C165.099 71.5002 165.112 71.6362 165.123 71.7723L165.125 71.7926C165.131 71.8982 165.142 72.0029 165.153 72.1122C165.158 72.1788 165.163 72.2445 165.169 72.3119C165.181 72.4611 165.196 72.6124 165.207 72.7637C165.225 72.9892 165.246 73.2156 165.265 73.4462C165.282 73.6801 165.301 73.9175 165.323 74.1553C165.328 74.2261 165.333 74.2969 165.34 74.3677C165.353 74.5351 165.366 74.7025 165.382 74.8687C165.386 74.9234 165.389 74.9781 165.394 75.0332C165.408 75.2133 165.422 75.3968 165.437 75.5795L165.452 75.7758C165.464 75.9369 165.477 76.0979 165.49 76.262C165.507 76.4993 165.526 76.7376 165.545 76.9758C165.547 77.0135 165.551 77.0521 165.554 77.0906C165.568 77.2873 165.583 77.487 165.599 77.6853C165.6 77.7091 165.602 77.7315 165.604 77.7553C165.605 77.7811 165.608 77.8078 165.61 77.8337C165.625 78.0223 165.639 78.2114 165.654 78.4004C165.671 78.6259 165.69 78.8523 165.704 79.0833C165.709 79.1596 165.715 79.2359 165.721 79.3117C165.734 79.4792 165.746 79.6466 165.758 79.8132C165.776 80.0442 165.793 80.2748 165.809 80.5066C165.83 80.7945 165.85 81.0823 165.871 81.3701C166.487 90.0175 166.947 98.2666 167.066 100.804Z" fill="#45A9EA"/>
</g>
<g id="Group_152">
<path id="Vector_155" d="M165.34 74.3677L138.582 75.9844C138.58 75.9132 138.578 75.8424 138.576 75.7712C138.57 75.5321 138.558 75.2948 138.556 75.0595C138.546 74.8281 138.54 74.6009 138.535 74.3749C138.529 74.2232 138.525 74.0727 138.52 73.9218L165.169 72.3115C165.181 72.4607 165.196 72.612 165.207 72.7634C165.225 72.9889 165.246 73.2152 165.264 73.4458C165.282 73.6798 165.3 73.9172 165.322 74.155C165.328 74.2262 165.333 74.297 165.34 74.3677Z" fill="#45A9EA"/>
<path id="Vector_156" d="M165.609 77.8339L138.699 79.4598C138.699 79.434 138.697 79.4073 138.697 79.3814C138.697 79.3577 138.695 79.3352 138.695 79.3115C138.686 79.1127 138.68 78.9122 138.673 78.7155C138.672 78.6769 138.669 78.6379 138.668 78.6002C138.661 78.3612 138.651 78.1225 138.644 77.8847C138.638 77.7203 138.632 77.5588 138.626 77.3973L165.451 75.7764C165.463 75.9374 165.476 76.0985 165.49 76.2626C165.507 76.4999 165.526 76.7381 165.545 76.9764C165.547 77.0141 165.55 77.0527 165.554 77.0912C165.568 77.2879 165.583 77.4876 165.598 77.6859C165.599 77.7097 165.602 77.7321 165.603 77.7559C165.605 77.7813 165.608 77.808 165.609 77.8339Z" fill="#45A9EA"/>
<path id="Vector_157" d="M165.871 81.3703L138.838 83.0035C138.827 82.7153 138.814 82.4271 138.803 82.1384C138.795 81.907 138.786 81.676 138.777 81.4433C138.77 81.2767 138.763 81.1088 138.757 80.941L165.721 79.312C165.734 79.4794 165.746 79.6469 165.758 79.8135C165.776 80.0445 165.793 80.2751 165.809 80.5069C165.83 80.7947 165.85 81.0825 165.871 81.3703Z" fill="#45A9EA"/>
</g>
<g id="Group_153">
<path id="Vector_158" d="M162.121 67.7111C162.965 68.7187 164.249 71.0398 164.827 72.1135C164.906 72.261 164.972 72.3848 165.022 72.4784C165.087 72.6018 165.124 72.673 165.127 72.6785C165.145 72.7154 165.173 72.7438 165.206 72.7633C165.189 72.545 165.17 72.328 165.151 72.1114C165.143 72.0041 165.133 71.8969 165.124 71.7913L165.123 71.774C165.004 71.5552 164.864 71.2984 164.708 71.0165C164.054 69.8386 163.125 68.2537 162.445 67.4407C162.37 67.3513 162.237 67.3398 162.147 67.4144C162.058 67.489 162.047 67.6221 162.121 67.7111Z" fill="#45A9EA"/>
</g>
<g id="Group_154">
<path id="Vector_159" d="M144.226 60.5789C144.228 60.5789 144.231 60.5784 144.233 60.5784C147.837 60.2453 150.532 58.5748 152.159 57.232C153.921 55.7772 154.819 54.4195 154.857 54.3623C154.921 54.2648 154.893 54.1343 154.796 54.0707C154.698 54.0067 154.568 54.0342 154.504 54.1313C154.468 54.1851 150.882 59.5404 144.194 60.1588C144.078 60.1694 143.993 60.272 144.003 60.3881C144.014 60.5017 144.113 60.5856 144.226 60.5789Z" fill="#45A9EA"/>
</g>
<g id="Group_155">
<path id="Vector_160" d="M159.804 96.255C159.913 96.2482 160.001 96.1575 160.001 96.0456C160.002 95.9291 159.908 95.8341 159.792 95.8337C153.843 95.8032 150.128 93.0145 148.059 90.6807C145.809 88.1429 144.958 85.5759 144.95 85.5501C144.914 85.4394 144.795 85.3784 144.684 85.4149C144.573 85.4509 144.513 85.5696 144.548 85.6802C144.583 85.7879 145.429 88.3443 147.732 90.9473C149.859 93.3515 153.678 96.2241 159.79 96.2555C159.795 96.2555 159.799 96.2555 159.804 96.255Z" fill="#45A9EA"/>
</g>
<g id="Group_156">
<path id="Vector_161" d="M154.781 92.7267C154.873 92.7212 154.955 92.6543 154.974 92.5589C154.998 92.4449 154.924 92.3334 154.81 92.3097C149.578 91.2288 148.324 86.9892 148.312 86.9468C148.281 86.8349 148.164 86.7692 148.052 86.801C147.94 86.8323 147.875 86.9485 147.906 87.0608C147.919 87.1074 148.236 88.2142 149.237 89.471C150.158 90.6277 151.858 92.1308 154.725 92.7229C154.744 92.7267 154.763 92.728 154.781 92.7267Z" fill="#45A9EA"/>
</g>
</g>
<g id="Group_157">
<path id="Vector_162" d="M141.094 68.2904C140.378 69.3921 139.383 71.851 138.938 72.9865C138.878 73.1421 138.827 73.2731 138.789 73.3727C138.739 73.5024 138.711 73.5783 138.709 73.5834C138.679 73.6643 138.605 73.7152 138.524 73.7203L138.52 73.7207C138.515 73.6135 138.512 73.5058 138.509 73.3994C138.446 73.4032 138.384 73.407 138.324 73.4083C138.349 73.3447 138.408 73.1887 138.493 72.9692C138.6 72.6932 138.748 72.3147 138.924 71.8836C139.431 70.6349 140.163 68.9496 140.739 68.0611C140.803 67.9632 140.934 67.9352 141.032 67.9992C141.13 68.0624 141.157 68.1938 141.094 68.2904Z" fill="#45A9EA"/>
</g>
<g id="Group_158">
<path id="Vector_163" d="M143.106 39.0756C143.106 39.0756 142.508 36.4311 143.101 35.4829C143.694 34.5347 144.769 34.7432 145.836 33.6297C146.903 32.5157 150.404 33.308 151.895 32.9443C152.715 32.7442 153.603 32.8023 154.405 32.5886C155.551 32.2835 156.241 33.3987 156.03 34.5503C155.896 35.2832 155.599 36.3895 154.571 36.7367C154.571 36.7367 144.446 35.5159 143.106 39.0756Z" fill="#2A365C"/>
<path id="Vector_164" d="M143.006 41.2226C143.24 45.0909 145.783 47.6125 149.651 47.379C153.519 47.1454 156.041 44.1164 155.807 40.2482C155.574 36.3803 153.106 33.5878 149.238 33.8218C144.599 34.102 142.772 37.3544 143.006 41.2226Z" fill="#2A365C"/>
<g id="Group_159">
<path id="Vector_165" d="M143.976 42.8355C143.976 42.8355 142.815 41.4676 142.087 42.7007C141.36 43.9337 142.701 47.3654 144.606 46.3926L143.976 42.8355Z" fill="#FD857D"/>
<g id="Group_160">
<g id="Group_161">
<g id="Group_162">
<path id="Vector_166" d="M144.113 45.3372C144.041 45.3414 143.972 45.2977 143.947 45.2261C143.578 44.1639 142.433 43.7934 142.421 43.79C142.334 43.7629 142.285 43.6696 142.313 43.5827C142.34 43.4954 142.433 43.4467 142.519 43.4738C142.573 43.4903 143.836 43.8947 144.26 45.1176C144.29 45.2041 144.244 45.2982 144.158 45.3283C144.143 45.3333 144.128 45.3363 144.113 45.3372Z" fill="#F05B56"/>
</g>
</g>
</g>
<g id="Group_163">
<path id="Vector_167" d="M142.95 44.8611C142.92 44.8628 142.888 44.8565 142.859 44.8404C142.779 44.7954 142.751 44.6946 142.796 44.6149C142.804 44.6017 142.983 44.2876 143.386 44.077C143.467 44.0346 143.567 44.066 143.61 44.1473C143.652 44.2283 143.621 44.3283 143.539 44.3707C143.228 44.5335 143.086 44.7747 143.085 44.7772C143.056 44.8281 143.005 44.8578 142.95 44.8611Z" fill="#F05B56"/>
</g>
</g>
<g id="Group_164">
<path id="Vector_168" d="M155.052 42.1666C155.052 42.1666 156.04 40.6686 156.91 41.8055C157.781 42.9423 156.863 46.51 154.854 45.7738L155.052 42.1666Z" fill="#FD857D"/>
<g id="Group_165">
<g id="Group_166">
<g id="Group_167">
<path id="Vector_169" d="M155.216 44.6664C155.289 44.6622 155.352 44.61 155.368 44.5358C155.606 43.4372 156.699 42.9315 156.71 42.9264C156.793 42.8887 156.83 42.7907 156.793 42.7077C156.756 42.6242 156.657 42.5869 156.574 42.6246C156.523 42.6475 155.318 43.2006 155.044 44.4659C155.025 44.5553 155.082 44.6435 155.171 44.663C155.186 44.6664 155.202 44.6672 155.216 44.6664Z" fill="#F05B56"/>
</g>
</g>
</g>
<g id="Group_168">
<g id="Group_169">
<g id="Group_170">
<path id="Vector_170" d="M156.313 44.0538C156.343 44.0521 156.374 44.0415 156.401 44.022C156.474 43.9678 156.491 43.8644 156.436 43.7906C156.427 43.7783 156.211 43.4884 155.786 43.3277C155.7 43.2951 155.605 43.3387 155.572 43.4244C155.54 43.51 155.583 43.6054 155.669 43.6376C155.998 43.7618 156.168 43.9839 156.169 43.9864C156.204 44.0335 156.259 44.0572 156.313 44.0538Z" fill="#F05B56"/>
</g>
</g>
</g>
</g>
<path id="Vector_171" d="M152.555 48.8916L152.765 52.372C152.765 52.372 151.834 54.207 150.438 54.4126C149.043 54.6198 147.697 53.0464 147.697 53.0464L147.479 49.4439L152.555 48.8916Z" fill="#FBA691"/>
<path id="Vector_172" d="M152.555 48.8916L152.648 50.4358C151.769 51.5379 150.112 51.8998 147.615 51.6841L147.48 49.4439L152.555 48.8916Z" fill="#FD857D"/>
<path id="Vector_173" d="M143.402 42.8045C143.428 43.0054 143.457 43.208 143.49 43.4136C143.573 43.9286 143.676 44.4572 143.802 44.9815C143.807 45.0002 143.81 45.018 143.815 45.0341C144.437 47.5722 145.641 50.0316 147.954 50.7038C153.194 52.2251 154.759 47.7168 155.337 45.1083C155.401 44.8187 155.455 44.4974 155.499 44.1558C155.5 44.1427 155.502 44.1283 155.504 44.1126C155.553 43.7285 155.59 43.3208 155.617 42.9011C155.637 42.5904 155.651 42.2755 155.662 41.958C155.69 41.1874 155.692 40.416 155.683 39.7318C155.664 38.169 154.644 36.7914 153.15 36.3201C150.998 35.6385 147.765 35.1909 144.842 37.0898C143.762 37.7905 143.132 39.007 143.185 40.293C143.214 41.0026 143.278 41.8728 143.402 42.8045Z" fill="#FBA691"/>
<path id="Vector_174" d="M147.494 42.8988C147.517 43.2701 147.343 43.5829 147.107 43.5973C146.871 43.6117 146.661 43.3218 146.639 42.9505C146.616 42.5792 146.79 42.2664 147.026 42.252C147.262 42.238 147.472 42.5275 147.494 42.8988Z" fill="#2A365C"/>
<path id="Vector_175" d="M152.738 42.5824C152.761 42.9537 152.588 43.2665 152.351 43.281C152.115 43.2954 151.906 43.0054 151.883 42.6341C151.861 42.2628 152.034 41.95 152.27 41.9356C152.506 41.9212 152.716 42.2107 152.738 42.5824Z" fill="#2A365C"/>
<path id="Vector_176" d="M153.34 40.2492C153.34 40.2492 151.959 39.7973 150.947 40.3089L151.086 40.8803C151.086 40.8803 152.603 40.6591 153.39 40.924C153.445 40.6976 153.441 40.4721 153.34 40.2492Z" fill="#2A365C"/>
<path id="Vector_177" d="M145.338 40.7326C145.338 40.7326 146.655 40.1179 147.721 40.5037L147.652 41.0878C147.652 41.0878 146.12 41.0509 145.37 41.4086C145.288 41.1908 145.265 40.9665 145.338 40.7326Z" fill="#2A365C"/>
<g id="Group_171">
<path id="Vector_178" d="M149.87 45.612C149.595 45.6624 149.303 45.606 149.257 45.5963C149.168 45.5776 149.111 45.4899 149.129 45.4005C149.147 45.311 149.236 45.2534 149.325 45.272C149.483 45.3047 149.854 45.3335 149.99 45.2135C150.016 45.1902 150.05 45.1478 150.042 45.0469C149.996 44.4671 149.49 42.5893 149.484 42.5702C149.46 42.4821 149.512 42.3909 149.601 42.3672C149.689 42.343 149.78 42.3956 149.804 42.4838C149.825 42.5622 150.324 44.4107 150.372 45.0207C150.39 45.2504 150.293 45.3873 150.208 45.4619C150.116 45.5437 149.994 45.5887 149.87 45.612Z" fill="#FD857D"/>
</g>
<path id="Vector_179" d="M147.669 46.7399C147.846 47.4118 148.37 48.6351 149.883 48.5439C151.4 48.4524 151.756 47.2838 151.855 46.4873L147.669 46.7399Z" fill="#FEFDFF"/>
<path id="Vector_180" d="M155.655 42.1593L154.905 42.2046C154.943 41.4472 154.614 40.5549 154.352 39.9628C153.757 38.6199 154.81 37.9485 153.888 37.314C152.965 36.6777 150.789 37.1058 149.261 37.1487C147.723 37.1919 145.257 37.3623 144.667 37.5373C144.076 37.7107 144.465 38.6873 144.731 39.4461C144.999 40.2031 144.094 41.1144 143.982 41.9223C143.949 42.1542 143.979 42.4941 144.039 42.8608L143.414 42.8985C143.282 41.9312 143.216 41.0271 143.185 40.2925C143.132 39.0065 143.762 37.79 144.842 37.0893C147.765 35.1904 150.998 35.6371 153.15 36.3187C154.644 36.7909 155.664 38.1681 155.684 39.7313C155.693 40.4748 155.689 41.3208 155.655 42.1593Z" fill="#2A365C"/>
<g id="Group_172">
<g id="Group_173">
<path id="Vector_181" d="M150.361 42.989C150.296 41.9026 151.126 40.9658 152.212 40.9001C153.299 40.8344 154.236 41.6648 154.301 42.7512C154.367 43.8376 153.537 44.7743 152.45 44.84C151.364 44.9057 150.427 44.0754 150.361 42.989ZM150.669 42.9703C150.724 43.8872 151.515 44.5883 152.432 44.5327C153.349 44.4772 154.05 43.6863 153.994 42.7694C153.939 41.8526 153.148 41.1515 152.231 41.207C151.314 41.2625 150.613 42.0535 150.669 42.9703Z" fill="#FEFDFF"/>
</g>
<g id="Group_174">
<path id="Vector_182" d="M144.977 43.3147C144.911 42.2283 145.742 41.2915 146.828 41.2258C147.914 41.1601 148.851 41.9905 148.917 43.0769C148.982 44.1633 148.152 45.1 147.065 45.1657C145.98 45.231 145.043 44.4006 144.977 43.3147ZM145.284 43.296C145.34 44.2129 146.131 44.9139 147.048 44.8584C147.965 44.8029 148.666 44.0119 148.61 43.0951C148.555 42.1783 147.764 41.4772 146.847 41.5327C145.93 41.5882 145.229 42.3792 145.284 43.296Z" fill="#FEFDFF"/>
</g>
<g id="Group_175">
<path id="Vector_183" d="M153.93 42.1364C153.969 42.1339 154.007 42.1169 154.036 42.0855C154.044 42.0762 154.887 41.1543 156.077 41.3569C156.161 41.3713 156.24 41.3149 156.255 41.231C156.269 41.1471 156.213 41.0678 156.129 41.0534C154.767 40.8216 153.845 41.8372 153.806 41.8804C153.75 41.944 153.756 42.041 153.819 42.0974C153.851 42.1262 153.891 42.139 153.93 42.1364Z" fill="#FEFDFF"/>
</g>
<g id="Group_176">
<path id="Vector_184" d="M145.236 42.6621C145.286 42.6592 145.334 42.6316 145.36 42.5846C145.402 42.5108 145.377 42.4171 145.303 42.3747C145.242 42.34 143.794 41.5249 142.62 41.7919C142.537 41.8106 142.485 41.8932 142.504 41.9759C142.523 42.0585 142.604 42.1107 142.688 42.0916C143.745 41.8513 145.137 42.6337 145.151 42.6418C145.177 42.6575 145.207 42.6638 145.236 42.6621Z" fill="#FEFDFF"/>
</g>
<g id="Group_177">
<path id="Vector_185" d="M148.782 42.6403C148.785 42.6352 149.12 42.1198 149.6 42.091C150.075 42.0621 150.434 42.5348 150.438 42.5399L150.685 42.3563C150.666 42.3313 150.225 41.7451 149.582 41.7841C148.943 41.8227 148.539 42.4491 148.522 42.4759L148.782 42.6403Z" fill="#FEFDFF"/>
</g>
</g>
</g>
<g id="Group_178">
<path id="Vector_186" d="M140.397 98.7865L138.655 101.164C138.655 101.164 137.646 100.533 136.277 99.435C136.273 99.4308 136.273 99.4308 136.269 99.4265C134.183 97.7607 131.263 95.0182 129.771 91.7925C127.906 87.7615 128.453 84.4977 128.453 84.4977C128.698 82.107 130.301 77.2494 131.577 73.6422C132.043 72.3325 132.467 71.1922 132.763 70.3911L136.659 71.2855L138.325 72.3113L137.685 74.0025L133.387 85.4048C133.764 88.7491 135.459 92.0384 137.091 94.5138C138.778 97.0825 140.397 98.7865 140.397 98.7865Z" fill="#FBA691"/>
<path id="Vector_187" d="M140.398 98.7868L138.656 101.165C138.656 101.165 137.647 100.533 136.278 99.4354C136.273 99.4311 136.273 99.4311 136.269 99.4269C135.968 97.6296 136.151 95.0906 137.092 94.5142C138.779 97.0828 140.398 98.7868 140.398 98.7868Z" fill="#FD857D"/>
<path id="Vector_188" d="M139.467 96.0428C139.818 96.0657 141.687 96.1586 141.485 95.5189C141.262 94.8136 139.427 93.9875 139.427 93.9875C139.427 93.9875 139.417 93.9515 139.435 93.904L139.415 93.7535L139.334 92.2373C138.979 92.2398 138.654 92.3089 138.478 92.3636C137.673 92.6124 137.784 94.4516 137.784 94.4516C137.784 94.4516 136.77 94.814 136.807 95.5567C136.844 96.2993 137.66 96.4108 137.66 96.4108C137.66 96.4108 136.545 96.9678 136.805 97.5989C137.066 98.2301 137.912 98.4157 137.912 98.4157C137.912 98.4157 136.955 99.0468 137.289 99.4923C137.623 99.9378 138.403 100.161 138.403 100.161C138.403 100.161 137.736 101.064 138.414 101.557C139.093 102.05 140.091 101.943 140.732 101.72C141.374 101.497 141.262 100.68 140 100.086C140 100.086 141.114 100.198 141.671 99.2694C142.135 98.4954 140.95 98.161 139.94 98.0279C140.734 98.0813 142.104 98.0588 142.339 97.3013C142.647 96.3078 139.896 96.0734 139.467 96.0428Z" fill="#FBA691"/>
<path id="Vector_189" d="M138.325 72.3113L137.685 74.0025C136.392 74.0831 134.078 74.1212 131.577 73.6422C132.043 72.3325 132.467 71.1922 132.764 70.3911L136.659 71.2855L138.325 72.3113Z" fill="#FD857D"/>
<path id="Vector_190" d="M138.861 58.5601C138.861 58.5601 134.119 63.3168 130.657 71.6133C133.371 72.4907 135.939 73.1117 138.324 73.4084C138.639 72.8557 139.883 69.3078 140.82 66.748L138.861 58.5601Z" fill="#45A9EA"/>
</g>
</g>
</g>
</g>
</svg>
